<svg xmlns="http://www.w3.org/2000/svg" viewBox="0 0 180.96 75.2"><defs><style>.a{fill:#4e65ad;}.b{fill:#6ac7e2;}.c{fill:#3d3d3d;}</style></defs><title>logo</title><path class="a" d="M179.48,75.23a7.54,7.54,0,0,1-.82-.2c-.52-.15-1-.35-1.52-.54-1-.41-2-.86-3-1.33-1.82-.86-3.65-1.72-5.44-2.64s-3.51-1.9-5.27-2.83a20.5,20.5,0,0,0-2.12-1l-.36-.12-.29,0c-.22,0-.43,0-.65,0-1,.06-2.07.23-3.11.35s-2.18.2-3.27.23a40,40,0,0,1-6.91-.5,47.9,47.9,0,0,1-6.46-1.47c-1-.3-2-.63-3-1s-1.84-.7-2.73-1.13c-.43-.21-.87-.43-1.29-.67s-.88-.53-1.31-.81c-.86-.54-1.7-1.11-2.52-1.72a17.69,17.69,0,0,1-4-4.19,16.23,16.23,0,0,1-.89-1.43.83.83,0,0,1,.31-1.12.84.84,0,0,1,1.12.31c.18.33.37.64.57,1a20.86,20.86,0,0,0,1.27,1.7c.49.55,1,1.08,1.54,1.58a23,23,0,0,0,2,1.55l1.57,1c.54.34,1.07.67,1.63,1A29.94,29.94,0,0,0,138,62.65a51,51,0,0,0,6.19,1.81,49.14,49.14,0,0,0,5.67.88,37.68,37.68,0,0,0,4.38.11q1.55-.08,3.09-.27a25,25,0,0,1,3.11-.3,4,4,0,0,1,1.37.24,13.21,13.21,0,0,1,1.34.58c.94.45,1.84,1,2.75,1.45s2.08,1.13,3.13,1.68c1.52.79,3.07,1.53,4.62,2.27s3.16,1.49,4.79,2.11l.43.14c-.14-.22-.27-.45-.4-.68-.38-.65-.75-1.31-1.09-2-.67-1.34-1.26-2.72-1.9-4.07-.35-.7-.7-1.4-1.07-2.09s-.79-1.33-1.2-2l-.95-1.42c-.33-.51-.67-1-1-1.57-.08-.16-.15-.33-.22-.49a1.43,1.43,0,0,1,.38-1.73c.15-.14.31-.27.47-.4l.61-.5a22.83,22.83,0,0,0,1.88-1.8,22.85,22.85,0,0,0,1.44-1.81c.43-.63.82-1.28,1.19-1.95a24.41,24.41,0,0,0,1-2.29c.18-.5.36-1,.51-1.51s.3-1.08.43-1.63a25.32,25.32,0,0,0,.4-2.59c0-.45.06-.9.07-1.35s0-1,0-1.53-.09-1.21-.15-1.81-.17-1.22-.28-1.82a35.31,35.31,0,0,0-.95-3.94,26.3,26.3,0,0,0-1.13-2.87c-.24-.47-.48-.95-.74-1.41s-.54-.89-.82-1.32a29.63,29.63,0,0,0-1.94-2.66,30.27,30.27,0,0,0-2.32-2.35c-.28-.24-.56-.48-.85-.71s-.59-.45-.89-.67c-.67-.46-1.34-.91-2-1.34s-1.46-.87-2.21-1.26a29,29,0,0,0-3.18-1.4,43.22,43.22,0,0,0-4.86-1.48,24.71,24.71,0,0,0-2.58-.4l-1.14-.07c-.4,0-.81,0-1.21,0q-1.14.06-2.28.21c-.81.11-1.62.24-2.42.38-1,.18-1.94.4-2.9.65s-1.91.54-2.85.84a43.09,43.09,0,0,0-4.31,1.66c-.62.31-1.24.63-1.85,1s-1.29.77-1.93,1.18h0c-.48.31-.95.62-1.41.95s-1,.75-1.45,1.15-.67.59-1,.9a8.35,8.35,0,0,0-.59.6l.46.68a24.81,24.81,0,0,1,1.63,2.77,21.77,21.77,0,0,1,1.24,3,22.51,22.51,0,0,1,.83,3.23,23.3,23.3,0,0,1,.37,6.4c-.05.55-.13,1.08-.23,1.62a9,9,0,0,1-.43,1.54c-.19.48-.38,1-.6,1.43a14.33,14.33,0,0,1-.71,1.34,9.05,9.05,0,0,1-1.78,2.21c-.2.18-.41.35-.62.51a7.57,7.57,0,0,1-.66.44c-.23.13-.48.25-.73.36a5,5,0,0,1-.73.28,3.75,3.75,0,0,1-1.33.13,3.09,3.09,0,0,1-1.49-.54,6.39,6.39,0,0,1-2.21-2.44,10.76,10.76,0,0,1-.69-1.55,17.52,17.52,0,0,1-.83-3.28,11.19,11.19,0,0,1-.13-1.63c0-.56,0-1.11,0-1.66s.09-1.22.18-1.82.19-1.09.31-1.63.28-1.11.45-1.65.38-1.13.59-1.68a25.07,25.07,0,0,1,1.42-3.12c.27-.5.55-1,.85-1.47s.65-1,1-1.42c.54-.75,1.12-1.47,1.72-2.17-.39-.51-.8-1-1.21-1.51a24.65,24.65,0,0,0-1.73-1.81,31.75,31.75,0,0,0-2.69-2.09,37.42,37.42,0,0,0-3.2-2c-.62-.32-1.25-.63-1.9-.91s-1.41-.58-2.12-.85c-.53-.18-1.07-.36-1.61-.52s-1.08-.29-1.62-.42-1.25-.24-1.89-.33-1.13-.13-1.7-.18-1.06-.08-1.59-.1h-1.55a37.86,37.86,0,0,0-4.37.57c-2.1.4-4.16,1-6.24,1.44q-.78.18-1.56.33a8.94,8.94,0,0,1-1.63.18,2.1,2.1,0,0,1-1-.28,3.61,3.61,0,0,1-.51-.36c-.38-.28-.74-.59-1.1-.89-.81-.67-1.61-1.37-2.42-2s-1.76-1.47-2.65-2.19S80.92,8.49,80,7.79s-1.78-1.28-2.65-1.94c-.57-.42-1.13-.87-1.68-1.32L75.1,4c.27.82.57,1.64.88,2.45.4,1,.85,2.06,1.31,3.08.86,1.93,1.75,3.86,2.56,5.82a13.29,13.29,0,0,1,1.17,4,2.6,2.6,0,0,1-.27,1.45,6.12,6.12,0,0,1-.48.69c-.38.51-.76,1-1.12,1.54a34.17,34.17,0,0,0-2,3.32,28.67,28.67,0,0,0-1.34,3,35.37,35.37,0,0,0-1.19,4.08,38.6,38.6,0,0,0-.74,4.78c0,.53-.07,1.07-.09,1.6s0,1.1,0,1.64a25.46,25.46,0,0,0,.35,3c.13.69.28,1.37.45,2s.38,1.36.58,2,.36,1,.56,1.57.48,1.17.74,1.74.42.87.65,1.29.53.91.81,1.35.46.67.69,1,.5.63.76.94.62.71,1,1,.69.68,1,1l.89.75c.3.24.61.46.91.68.46.31.92.6,1.39.89s1,.55,1.46.82a44.2,44.2,0,0,0,4.47,2c.66.24,1.32.47,2,.66s1.4.38,2.1.55c.45.1.89.2,1.34.27s1,.14,1.52.2h-.11c.66.06,1.32.11,2,.12s1.41,0,2.11,0,1.18-.07,1.77-.14,1.28-.17,1.92-.28,1.48-.29,2.22-.46,1.51-.4,2.26-.63,1.41-.49,2.1-.76,1.4-.59,2.08-.91,1.19-.58,1.77-.89,1.07-.6,1.59-.93c.18-.12.36-.24.53-.37l.63-.48c.35-.32.68-.65,1-1l.71-.87c.13-.17.26-.33.4-.49a2.85,2.85,0,0,1,.42-.43h0A.82.82,0,0,1,121.89,58l0,0-.08.09a24.11,24.11,0,0,1-2.06,2.34,14.82,14.82,0,0,1-1.32,1c-.47.31-.94.62-1.43.89a37.92,37.92,0,0,1-6.37,2.86c-.58.19-1.16.37-1.75.53s-1.18.31-1.78.45-1.07.22-1.61.32-1.14.2-1.7.26S102.56,67,102,67s-1.2.06-1.8.06a28.06,28.06,0,0,1-3.43-.19,23.27,23.27,0,0,1-3.21-.6c-1-.27-2.09-.57-3.11-.93A38.87,38.87,0,0,1,84,62.42c-.49-.28-1-.57-1.42-.88s-.91-.63-1.34-1a23.75,23.75,0,0,1-2.49-2.32c-.38-.41-.76-.83-1.1-1.27s-.72-1-1.06-1.48-.64-1-.94-1.57-.5-1-.72-1.45a31.82,31.82,0,0,1-1.22-3.11c-.35-1.06-.65-2.13-.91-3.22a27.88,27.88,0,0,1-.55-3.29c-.06-.56-.08-1.11-.1-1.67s0-1.09,0-1.64a31.56,31.56,0,0,1,.29-3.22c.15-1.1.33-2.18.58-3.26a30.74,30.74,0,0,1,2.13-6.32,31.65,31.65,0,0,1,2-3.64c.36-.57.75-1.13,1.15-1.68s.63-.84.93-1.27a.36.36,0,0,0,.07-.1v0l0-.08a.36.36,0,0,0,0-.1v-.29a5.51,5.51,0,0,0-.06-.57A12.23,12.23,0,0,0,79,17.79c-.35-1-.77-2-1.19-3s-.84-1.92-1.27-2.88c-.89-2-1.8-3.95-2.53-6-.22-.63-.44-1.25-.65-1.89l-.27-.87c-.07-.24-.15-.49-.2-.74a2,2,0,0,1-.05-.54,1,1,0,0,1,.28-.57.92.92,0,0,1,.65-.26,1.35,1.35,0,0,1,.62.21,4,4,0,0,1,.72.57l.66.6Q77,3.54,78.3,4.51c.9.67,1.81,1.31,2.71,2s1.8,1.4,2.68,2.12,1.77,1.45,2.65,2.18l2,1.7c.58.49,1.16,1,1.78,1.44l.15.1h.43a8,8,0,0,0,1-.13c1-.2,2.06-.43,3.09-.68s2.07-.51,3.11-.75,2.2-.45,3.31-.62a28.34,28.34,0,0,1,3.31-.34,27.85,27.85,0,0,1,3.29.14,29.91,29.91,0,0,1,3.38.49,22.94,22.94,0,0,1,3,.84c1.12.39,2.22.82,3.3,1.31a32.43,32.43,0,0,1,5.64,3.36,23.27,23.27,0,0,1,2.48,2A23.65,23.65,0,0,1,127.7,22l.48.6c.51-.52,1-1,1.61-1.5s.88-.73,1.34-1.06.93-.65,1.41-1c.93-.61,1.86-1.18,2.83-1.7a26.46,26.46,0,0,1,3-1.4c1.06-.42,2.14-.79,3.23-1.14s2-.63,3.09-.89,2.19-.48,3.3-.66a25.66,25.66,0,0,1,6.66-.4,20.57,20.57,0,0,1,3.2.54c1.08.27,2.16.59,3.22.94s2.11.74,3.14,1.19A29.73,29.73,0,0,1,167.09,17c1,.55,1.9,1.16,2.81,1.78.43.3.86.59,1.27.92s.88.73,1.3,1.12.78.75,1.16,1.13.76.8,1.12,1.23a30.35,30.35,0,0,1,1.9,2.6c.29.45.58.9.85,1.36s.49.9.72,1.36a23.74,23.74,0,0,1,1.25,3,30.54,30.54,0,0,1,.84,3.12c.22,1,.42,2.08.55,3.14a26.51,26.51,0,0,1,.21,3.22,18.94,18.94,0,0,1-.22,3.1c-.08.5-.15,1-.26,1.5s-.26,1.09-.41,1.63a26.17,26.17,0,0,1-1,2.86A23,23,0,0,1,178,52.49a19.14,19.14,0,0,1-1.6,2.32,18.52,18.52,0,0,1-1.85,2c-.32.3-.64.59-1,.87l-.91.74-.07.07a1.89,1.89,0,0,0,.11.25,12.55,12.55,0,0,0,.69,1.18,51.74,51.74,0,0,1,2.8,4.54c.43.83.83,1.67,1.22,2.51s.72,1.58,1.09,2.36c.25.51.5,1,.77,1.5s.51.91.77,1.36.47.79.69,1.19A3.66,3.66,0,0,1,181,74a1,1,0,0,1-.36,1,1.24,1.24,0,0,1-.74.22A2.58,2.58,0,0,1,179.48,75.23ZM123.1,52.59l.46,0,.36,0c.67-.11,1.32-.23,2-.36l1.35-.34c.74-.23,1.44-.48,2.13-.74.5-.2,1-.41,1.41-.64a16.26,16.26,0,0,0,1.43-.83A21.73,21.73,0,0,0,134.29,48a23,23,0,0,0,2.11-2.23,8,8,0,0,0,.72-1.1,12.79,12.79,0,0,0,.71-2.17,12.7,12.7,0,0,0,.15-2.75,18.47,18.47,0,0,0-1.1-4.28,18.44,18.44,0,0,0-1.9-3.38c-.37-.52-.77-1-1.21-1.54s-1-1-1.5-1.54-1.12-1-1.74-1.52-1.36-1-2.08-1.56l-1.09-.74c-.42.22-.83.45-1.23.68-1.07.62-2.1,1.25-3.1,1.9-.61.4-1.22.8-1.79,1.21s-1.33,1-1.95,1.53-1.37,1.24-2,1.87-1.25,1.36-1.83,2.06a17,17,0,0,0-2.19,3.35c-.2.42-.38.84-.55,1.25a10.84,10.84,0,0,0-.39,1.31c-.09.48-.17,1-.22,1.43a11.46,11.46,0,0,0,0,1.55,7.47,7.47,0,0,0,.17,1.14c.12.42.26.84.42,1.25a16.15,16.15,0,0,0,1.46,2.47,14.33,14.33,0,0,0,1.3,1.44c.36.32.74.64,1.16.95.24.16.48.32.74.47.44.23.9.45,1.39.66l1.38.48.71.19.32.07.52.07.35,0Z" transform="translate(-0.6 -0.57)"/><path class="a" d="M179.88,75.76a2.7,2.7,0,0,1-.49,0h0a8.52,8.52,0,0,1-.87-.22c-.53-.15-1.05-.35-1.56-.55-.93-.37-1.9-.8-3.06-1.34-1.79-.85-3.65-1.72-5.45-2.65-1-.52-2-1.06-3-1.59l-2.3-1.25a20.33,20.33,0,0,0-2.07-1l-.31-.1-.22,0H160c-.69,0-1.39.14-2.09.23l-1,.12a32.63,32.63,0,0,1-3.32.23,40.08,40.08,0,0,1-7-.5,49.41,49.41,0,0,1-6.53-1.48c-1-.3-2-.63-3-1a28.83,28.83,0,0,1-2.77-1.16c-.45-.21-.9-.43-1.33-.68L131.65,62c-1-.62-1.8-1.19-2.55-1.75A18.26,18.26,0,0,1,125,55.9a17.1,17.1,0,0,1-.91-1.47,1.25,1.25,0,0,1-.12-1,1.45,1.45,0,0,1,.22-.45L124,53l-.39.05-.49,0h0c-.37,0-.73,0-1.1,0l-.36,0-.57-.07-.35-.07L120,52.7c-.49-.16-1-.32-1.41-.49s-1-.44-1.45-.68c-.29-.17-.54-.34-.79-.5-.44-.34-.84-.66-1.21-1a14.09,14.09,0,0,1-1.36-1.5A17.78,17.78,0,0,1,112.25,46c-.18-.47-.33-.91-.45-1.34a8.18,8.18,0,0,1-.18-1.16,12.07,12.07,0,0,1,0-1.71c0-.49.13-1,.22-1.47a11.45,11.45,0,0,1,.42-1.4c.17-.43.36-.85.56-1.28s.6-1.13,1-1.76.8-1.12,1.25-1.69c.63-.75,1.23-1.43,1.86-2.09s1.33-1.3,2-1.9,1.34-1.09,2-1.56,1.18-.82,1.79-1.22l1.8-1.13.2-.27.19-.27c.45-.63.95-1.26,1.48-1.9l-1-1.17a20.68,20.68,0,0,0-1.69-1.76,30.1,30.1,0,0,0-2.64-2.06A35.61,35.61,0,0,0,118,16.92c-.6-.31-1.22-.61-1.86-.89s-1.39-.57-2.09-.83c-.52-.18-1-.36-1.59-.52s-1-.28-1.58-.4S109.64,14,109,14s-1.13-.13-1.69-.18-1-.08-1.56-.09-1,0-1.51,0a37.18,37.18,0,0,0-4.3.56c-1.23.23-2.48.54-3.69.83-.84.21-1.69.42-2.54.61L92.16,16a7.48,7.48,0,0,1-1.73.2,2.74,2.74,0,0,1-1.27-.34,5.78,5.78,0,0,1-.48-.33c-.44-.33-.77-.61-1.1-.88l-.11-.1-1.28-1.08-1.14-1q-1.32-1.11-2.64-2.19c-.89-.72-1.79-1.44-2.7-2.13-.48-.37-1-.72-1.45-1.07s-.8-.57-1.2-.87l-.9-.7.28.75c.39,1,.82,2,1.3,3.06l.55,1.23c.69,1.53,1.38,3.05,2,4.6a13.59,13.59,0,0,1,1.22,4.2,3.13,3.13,0,0,1-.33,1.72c-.14.23-.3.44-.46.66-.45.59-.82,1.1-1.18,1.61a37.39,37.39,0,0,0-2,3.27,29.15,29.15,0,0,0-1.32,2.93,35.31,35.31,0,0,0-1.17,4,41.86,41.86,0,0,0-.73,4.72c0,.51-.07,1-.08,1.56s0,1.08,0,1.61a23.46,23.46,0,0,0,.34,2.94c.13.68.27,1.35.44,2s.37,1.34.58,2c.16.51.34,1,.54,1.53s.48,1.16.73,1.73.41.84.64,1.25.51.89.78,1.32.45.65.69,1,.4.52.61.78l.12.14c.29.33.6.68.92,1s.69.67,1,1l.87.73c.26.21.53.4.8.6.52.35,1,.64,1.44.93s1,.54,1.44.8a42.46,42.46,0,0,0,4.41,1.94c.63.23,1.28.45,1.94.64s1.38.38,2.08.55c.42.09.86.19,1.3.26s1,.14,1.48.19,1.22.11,1.84.11,1.39,0,2.08,0,1.15-.08,1.73-.14,1.27-.17,1.9-.28,1.46-.29,2.18-.46,1.5-.39,2.24-.62,1.37-.47,2.07-.74,1.32-.56,2-.86,1.24-.61,1.82-.91,1-.6,1.55-.92l.51-.35c.21-.15.4-.31.61-.47s.64-.6,1-.94.47-.55.7-.84.28-.36.4-.5a3,3,0,0,1,.5-.51l0,0a1.33,1.33,0,0,1,1.7.16,1.33,1.33,0,0,1,0,1.87l-.47-.23.38.32-.59.72A14.89,14.89,0,0,1,120,60.87,15.91,15.91,0,0,1,118.65,62c-.47.32-1,.64-1.46.92a37.39,37.39,0,0,1-6.45,2.89q-.88.28-1.77.54c-.6.17-1.2.31-1.81.45-.46.11-.93.2-1.39.29l-.24,0c-.57.11-1.16.2-1.74.26s-1.19.13-1.79.17-1.22,0-1.83.06a32.33,32.33,0,0,1-3.49-.19,24,24,0,0,1-3.27-.62c-1.27-.33-2.24-.62-3.16-1a38.4,38.4,0,0,1-6.51-3c-.49-.29-1-.59-1.45-.9s-.93-.65-1.37-1a25.56,25.56,0,0,1-2.55-2.37c-.39-.42-.77-.85-1.12-1.31s-.73-1-1.08-1.5-.67-1.09-1-1.61-.52-1-.75-1.49a33.77,33.77,0,0,1-1.23-3.16c-.35-1-.66-2.14-.92-3.25a26.74,26.74,0,0,1-.56-3.36c-.06-.54-.08-1.08-.11-1.62s0-1.2,0-1.75c0-1.07.14-2.18.29-3.28.19-1.28.37-2.33.6-3.3a30.75,30.75,0,0,1,2.16-6.42,33.61,33.61,0,0,1,2.07-3.7c.37-.58.76-1.15,1.17-1.7.13-.19.28-.38.42-.57l.51-.69a1.32,1.32,0,0,0,0-.31,4.84,4.84,0,0,0-.06-.5,10,10,0,0,0-.3-1.13C78.21,17,77.81,16,77.36,15s-.84-1.92-1.27-2.88l-.26-.58C75,9.78,74.22,8,73.55,6.1c-.22-.63-.44-1.27-.65-1.9-.09-.3-.19-.59-.27-.88s-.17-.55-.22-.78a2.17,2.17,0,0,1,0-.7A1.41,1.41,0,0,1,73.79.57a1.9,1.9,0,0,1,.86.27,4.69,4.69,0,0,1,.72.55l.75.68c.8.72,1.63,1.41,2.48,2,.43.33.88.65,1.32,1s.93.67,1.39,1c.91.68,1.8,1.4,2.69,2.13s1.78,1.45,2.65,2.18l2.29,1.94c.48.4,1,.81,1.46,1.17l0,0h.24a7.66,7.66,0,0,0,.91-.13c1-.2,2-.42,3.05-.67l1.08-.26,2-.5c1-.22,2-.42,3.35-.62a27.4,27.4,0,0,1,3.37-.34,28.11,28.11,0,0,1,3.35.13,34.3,34.3,0,0,1,3.44.5,26.22,26.22,0,0,1,3.12.86c1.21.43,2.31.87,3.33,1.33a32.21,32.21,0,0,1,5.73,3.41A25.12,25.12,0,0,1,126,19.36a26.56,26.56,0,0,1,2.09,2.34l.14.18c.42-.41.83-.78,1.25-1.14s.9-.74,1.37-1.08.95-.66,1.43-1c1-.68,2-1.25,2.87-1.72a28,28,0,0,1,3.06-1.43c1-.38,2-.75,3.26-1.14s2.16-.66,3.12-.9,2.1-.47,3.34-.67a26.52,26.52,0,0,1,6.79-.41A21.8,21.8,0,0,1,158,13c1.09.27,2.18.59,3.25.95a33.42,33.42,0,0,1,3.19,1.21,29.82,29.82,0,0,1,2.92,1.48c.86.49,1.77,1.07,2.84,1.8.44.3.88.61,1.3.94s.89.75,1.33,1.14.79.77,1.17,1.16.79.82,1.15,1.25a31.73,31.73,0,0,1,1.93,2.65q.45.68.87,1.38c.26.44.5.91.73,1.37a26.37,26.37,0,0,1,1.28,3.08,32.21,32.21,0,0,1,.85,3.17c.25,1.16.44,2.21.56,3.18a29.41,29.41,0,0,1,.22,3.29,21.12,21.12,0,0,1-.23,3.17c-.08.51-.16,1-.26,1.53s-.27,1.12-.43,1.67a25.55,25.55,0,0,1-1,2.91,20.36,20.36,0,0,1-1.21,2.43,18.54,18.54,0,0,1-1.64,2.38,19.41,19.41,0,0,1-1.9,2.07c-.32.3-.65.6-1,.88l-.53.45-.17.13c.19.34.4.68.62,1l.44.67a43.44,43.44,0,0,1,2.38,3.92q.65,1.25,1.23,2.52l.46,1,.63,1.36c.24.49.49,1,.75,1.47s.51.9.77,1.35l.19.32c.17.3.35.59.51.89a3.26,3.26,0,0,1,.29.74,1.48,1.48,0,0,1-.55,1.55A1.64,1.64,0,0,1,179.88,75.76Zm-.32-1a1.09,1.09,0,0,0,.76-.08.52.52,0,0,0,.17-.53,2.36,2.36,0,0,0-.2-.51c-.15-.28-.32-.56-.48-.84l-.2-.33q-.39-.67-.78-1.38c-.27-.49-.52-1-.77-1.51s-.43-.92-.64-1.38l-.46-1c-.39-.84-.79-1.67-1.21-2.49a41.12,41.12,0,0,0-2.33-3.83L173,60.2c-.26-.4-.51-.8-.73-1.22l-.13-.3a.5.5,0,0,1,.13-.54.76.76,0,0,0,.09-.09l.39-.31.52-.43c.32-.28.64-.56.94-.85a18.54,18.54,0,0,0,1.82-2,19.1,19.1,0,0,0,1.55-2.26,20.91,20.91,0,0,0,1.16-2.32,25.6,25.6,0,0,0,1-2.8c.15-.53.29-1.07.41-1.61s.17-1,.25-1.46a19.26,19.26,0,0,0,.22-3,29.73,29.73,0,0,0-.21-3.17c-.12-1-.3-2-.55-3.1A29.32,29.32,0,0,0,179,31.7a22.78,22.78,0,0,0-1.22-2.94c-.23-.46-.45-.9-.7-1.32s-.56-.9-.85-1.35a27.9,27.9,0,0,0-1.86-2.55c-.35-.42-.72-.81-1.1-1.2s-.74-.76-1.13-1.12-.84-.74-1.28-1.09-.82-.61-1.24-.9c-1.05-.72-1.93-1.28-2.77-1.76A27.91,27.91,0,0,0,164,16c-.91-.4-1.9-.78-3.1-1.18-1-.35-2.12-.66-3.18-.93a20,20,0,0,0-3.13-.53,25.59,25.59,0,0,0-6.53.4c-1.21.19-2.28.41-3.26.66s-1.94.52-3.06.87-2.25.75-3.2,1.13a25.94,25.94,0,0,0-2.95,1.37c-.86.46-1.78,1-2.8,1.68-.47.31-.94.62-1.39.95s-.89.68-1.31,1-1.05.93-1.58,1.47a.48.48,0,0,1-.38.15.5.5,0,0,1-.36-.19l-.48-.6a22.31,22.31,0,0,0-2-2.25,25.49,25.49,0,0,0-2.43-2,31.87,31.87,0,0,0-5.56-3.31c-1-.45-2.06-.87-3.25-1.29a22,22,0,0,0-3-.82,29.31,29.31,0,0,0-3.33-.49,26.21,26.21,0,0,0-3.22-.13,25.17,25.17,0,0,0-3.25.33c-1.28.19-2.33.39-3.28.61-.68.15-1.35.32-2,.49l-1.09.27c-1,.24-2.06.47-3.1.68-.35.06-.7.11-1,.14h-.39l-.13,0-.17-.06a1.72,1.72,0,0,1-.22-.14c-.53-.38-1-.8-1.53-1.22L86,11.18c-.88-.74-1.76-1.47-2.64-2.18s-1.76-1.43-2.67-2.11c-.45-.34-.91-.68-1.38-1L78,4.9c-.87-.65-1.73-1.35-2.55-2.09l-.66-.6a3.58,3.58,0,0,0-.63-.51.7.7,0,0,0-.4-.14.46.46,0,0,0-.29.11.52.52,0,0,0-.12.26,1.48,1.48,0,0,0,0,.4c.05.21.11.41.17.61.11.38.2.67.3,1,.2.63.42,1.25.64,1.87.65,1.83,1.46,3.63,2.25,5.38l.26.57c.43,1,.86,1.93,1.27,2.9s.86,2,1.21,3c.13.42.24.83.33,1.26,0,.22,0,.42.07.62s0,.25,0,.36,0,.16,0,.18a.74.74,0,0,0,0,.14l-.06.12-.06.11-.55.74-.41.55c-.4.54-.77,1.09-1.13,1.65a31.89,31.89,0,0,0-2,3.6,30.1,30.1,0,0,0-2.09,6.21c-.21.95-.4,2-.57,3.22-.15,1.07-.25,2.14-.29,3.17,0,.53,0,1.07,0,1.6s.05,1.12.1,1.64A26.45,26.45,0,0,0,73.28,46c.25,1.08.55,2.15.89,3.17a30.88,30.88,0,0,0,1.2,3.06,14.46,14.46,0,0,0,.71,1.42c.27.5.57,1,.91,1.54s.68,1,1.05,1.45A15.59,15.59,0,0,0,79.1,57.9a24.67,24.67,0,0,0,2.45,2.28,15.37,15.37,0,0,0,1.3.94c.45.31.91.6,1.39.87a37,37,0,0,0,6.35,2.9c.88.31,1.83.6,3.06.92a22.35,22.35,0,0,0,3.14.59,30.55,30.55,0,0,0,3.38.18c.59,0,1.18,0,1.77,0s1.16-.1,1.74-.16,1.12-.15,1.67-.26l.23,0c.45-.09.91-.17,1.36-.28s1.18-.27,1.76-.43l1.73-.53A37.36,37.36,0,0,0,116.71,62c.48-.27.94-.56,1.39-.87a12,12,0,0,0,1.27-1,12.48,12.48,0,0,0,1.41-1.56c.2-.25.4-.5.61-.74l.1-.11a.34.34,0,0,0,.15-.27.34.34,0,0,0-.09-.24.35.35,0,0,0-.43,0l0,0a2.11,2.11,0,0,0-.25.26c-.18.21-.29.35-.4.49-.29.36-.53.65-.78.94s-.69.71-1,1-.44.35-.66.51l-.46.32-.11.07c-.53.34-1.07.66-1.62,1s-1.18.61-1.78.9-1.43.66-2.12.92-1.41.53-2.12.77-1.54.46-2.31.64-1.49.33-2.23.47-1.31.21-2,.28-1.2.11-1.8.15-1.43,0-2.14,0-1.26-.06-1.89-.12h-.19c-.46-.05-.93-.11-1.39-.18s-.91-.17-1.37-.27c-.72-.18-1.42-.36-2.12-.56s-1.35-.43-2-.67a43.82,43.82,0,0,1-4.53-2c-.51-.27-1-.54-1.5-.84s-.94-.59-1.4-.9a11.72,11.72,0,0,1-1-.71l-.9-.75c-.38-.35-.73-.69-1.08-1s-.66-.7-1-1.06l-.12-.15c-.23-.27-.45-.55-.66-.83s-.48-.67-.71-1-.56-.91-.82-1.38-.46-.87-.67-1.31c-.27-.6-.51-1.19-.75-1.78s-.39-1.06-.57-1.59c-.21-.7-.42-1.37-.59-2.06s-.33-1.39-.46-2.09a25.55,25.55,0,0,1-.35-3.07c0-.57,0-1.12,0-1.68s0-1.09.09-1.63a40.17,40.17,0,0,1,.74-4.85,37.44,37.44,0,0,1,1.21-4.14,30.46,30.46,0,0,1,1.37-3,36,36,0,0,1,2-3.37c.37-.53.75-1.05,1.13-1.56a5.63,5.63,0,0,0,.45-.64,2.05,2.05,0,0,0,.21-1.16,12.88,12.88,0,0,0-1.14-3.89c-.64-1.54-1.32-3.06-2-4.57l-.55-1.24c-.49-1.09-.93-2.08-1.32-3.1-.32-.82-.61-1.64-.89-2.47a.51.51,0,0,1,.2-.58.5.5,0,0,1,.6.05l.57.49c.54.45,1.09.88,1.66,1.31l1.18.86L80.31,7.4c.92.7,1.82,1.42,2.72,2.15l2.66,2.2,1.14,1,1.28,1.07.11.1c.32.26.64.53,1,.78a4.66,4.66,0,0,0,.45.32,1.6,1.6,0,0,0,.85.21A7.52,7.52,0,0,0,92,15l1.55-.32,2.52-.6c1.22-.3,2.48-.61,3.74-.85a36.56,36.56,0,0,1,4.43-.57c.54,0,1.07,0,1.59,0s1.08.05,1.62.09,1.16.11,1.73.19,1.28.21,1.91.34,1.13.26,1.67.42,1.09.35,1.64.54c.72.27,1.44.55,2.15.85s1.3.6,1.93.93a36.94,36.94,0,0,1,3.25,2,30.28,30.28,0,0,1,2.73,2.13A21.42,21.42,0,0,1,126.21,22c.43.5.84,1,1.24,1.53a.5.5,0,0,1,0,.62c-.25.28-.48.56-.7.83l.39-.21a.47.47,0,0,1,.51,0c.37.24.74.5,1.1.75.61.43,1.13.81,1.6,1.17-.33-.6-.71-1.2-1.12-1.82-.15-.22-.3-.45-.46-.67a.5.5,0,0,1,.05-.62c.19-.21.39-.42.6-.62l1-.92c.49-.41,1-.8,1.49-1.17s.94-.65,1.43-1l0,0c.63-.4,1.27-.79,1.92-1.16s1.24-.68,1.88-1a41.65,41.65,0,0,1,4.36-1.69c1-.3,1.92-.6,2.88-.85s2-.48,2.94-.66,1.63-.27,2.44-.38,1.48-.17,2.32-.22c.46,0,.86,0,1.26,0s.77,0,1.16.06a25.11,25.11,0,0,1,2.65.42A41.54,41.54,0,0,1,162.08,16a31.78,31.78,0,0,1,3.24,1.42c.82.44,1.55.86,2.24,1.29s1.38.89,2.05,1.35c.32.23.63.45.92.69s.58.48.87.73a31,31,0,0,1,2.36,2.4,31.58,31.58,0,0,1,2,2.7c.29.45.58.9.84,1.36s.51.95.75,1.43a26.64,26.64,0,0,1,1.16,2.93,34.87,34.87,0,0,1,1,4c.11.62.21,1.23.28,1.86s.12,1.22.16,1.83,0,1,0,1.58,0,.91-.08,1.37a25.23,25.23,0,0,1-.41,2.65c-.13.57-.27,1.13-.44,1.68s-.33,1-.51,1.53a23.35,23.35,0,0,1-1,2.34,21.42,21.42,0,0,1-1.22,2A21.94,21.94,0,0,1,174.75,55a24.73,24.73,0,0,1-1.93,1.85l-.62.51a4,4,0,0,0-.43.37,1.09,1.09,0,0,0-.37.64,1.17,1.17,0,0,0,.1.54c.06.15.13.3.2.45.27.52.6,1,.92,1.51l.95,1.44c.41.64.84,1.32,1.22,2s.74,1.4,1.08,2.11l.76,1.63c.37.82.74,1.64,1.15,2.44s.7,1.31,1.07,2l.39.67a.48.48,0,0,1,0,.56.49.49,0,0,1-.54.16l-.35-.12c-1.71-.63-3.24-1.35-4.92-2.15l-.13-.06c-1.48-.71-3-1.45-4.51-2.22-1.05-.55-2.1-1.12-3.13-1.69s-1.81-1-2.73-1.43a13.49,13.49,0,0,0-1.3-.57,7.89,7.89,0,0,0-3.68,0l-.57.08c-1.05.13-2.1.22-3.13.27a36.52,36.52,0,0,1-4.44-.11,48.31,48.31,0,0,1-5.74-.89,51.64,51.64,0,0,1-6.25-1.82,31,31,0,0,1-3.5-1.51c-.57-.31-1.12-.65-1.66-1s-1.07-.69-1.59-1A21.37,21.37,0,0,1,129,58a20.57,20.57,0,0,1-1.58-1.63,19.92,19.92,0,0,1-1.31-1.75c-.21-.32-.4-.65-.59-1a.35.35,0,0,0-.45-.13.38.38,0,0,0-.15.2.34.34,0,0,0,0,.25c.27.47.56.94.87,1.39a17.1,17.1,0,0,0,3.89,4.07c.72.54,1.54,1.1,2.48,1.7.43.28.86.54,1.3.8s.83.45,1.26.65c.76.37,1.59.71,2.68,1.12s2,.7,3,1a47.56,47.56,0,0,0,6.4,1.46,39.06,39.06,0,0,0,6.82.49c1.09,0,2.18-.1,3.23-.22l1-.12c.72-.1,1.45-.19,2.18-.24.24,0,.48,0,.71,0l.36.06c.17,0,.3.09.43.13a20.59,20.59,0,0,1,2.18,1l2.31,1.24c1,.54,2,1.08,3,1.59,1.78.92,3.64,1.79,5.43,2.63,1.13.54,2.08,1,3,1.31a13.77,13.77,0,0,0,1.48.53A7,7,0,0,0,179.56,74.74ZM160.39,64.38a4.5,4.5,0,0,1,1.54.27,14.2,14.2,0,0,1,1.39.6c.94.46,1.86,1,2.77,1.46s2.07,1.13,3.12,1.68c1.47.77,3,1.5,4.48,2.2l.13.06c1.35.65,2.6,1.24,3.87,1.75-.28-.49-.55-1-.8-1.49-.41-.81-.79-1.64-1.16-2.46L175,66.83c-.34-.69-.69-1.38-1.06-2.06s-.78-1.33-1.18-1.95l-.94-1.42a17.42,17.42,0,0,1-1-1.62,4.9,4.9,0,0,1-.24-.52,2.1,2.1,0,0,1-.16-1.08,2.13,2.13,0,0,1,.66-1.19,4.59,4.59,0,0,1,.41-.36l.69-.57A20.71,20.71,0,0,0,174,54.3a19.75,19.75,0,0,0,1.41-1.76,21.23,21.23,0,0,0,1.15-1.9,23.32,23.32,0,0,0,1-2.22c.17-.49.34-1,.49-1.48s.3-1.06.43-1.61a22.46,22.46,0,0,0,.38-2.52c0-.43.06-.87.07-1.31s0-1,0-1.5-.08-1.18-.14-1.77-.17-1.2-.27-1.79a36.68,36.68,0,0,0-.94-3.89,27.17,27.17,0,0,0-1.11-2.8c-.23-.46-.46-.92-.72-1.37s-.53-.88-.81-1.31a29.81,29.81,0,0,0-1.9-2.6,28.66,28.66,0,0,0-2.27-2.3c-.27-.23-.54-.47-.83-.69s-.57-.44-.87-.65c-.65-.46-1.32-.91-2-1.33s-1.39-.82-2.18-1.25a28.78,28.78,0,0,0-3.13-1.37,41.22,41.22,0,0,0-4.79-1.45,22.34,22.34,0,0,0-2.52-.4c-.35,0-.73,0-1.1-.06h-1.15c-.84,0-1.57.12-2.26.21s-1.61.24-2.41.38-1.88.38-2.86.64-1.89.54-2.82.84a42,42,0,0,0-4.25,1.63c-.61.3-1.22.62-1.81,1s-1.28.76-1.91,1.16l0,0c-.45.29-.91.59-1.35.91s-1,.73-1.42,1.12-.65.59-1,.89l-.3.29.24.35a26.43,26.43,0,0,1,1.67,2.83c.18.38.36.76.53,1.14l.38.35c.51.5,1,1,1.53,1.57a19.93,19.93,0,0,1,1.24,1.58,16.6,16.6,0,0,1,3.09,7.9,13.77,13.77,0,0,1-.15,2.88,14.25,14.25,0,0,1-.74,2.29,7.71,7.71,0,0,1-.79,1.2,21.93,21.93,0,0,1-2.17,2.3A22.94,22.94,0,0,1,132.48,50c-.47.3-.95.59-1.46.86s-1,.45-1.47.66c-.7.26-1.42.52-2.16.75-.46.13-.93.24-1.4.35l-.09,0a1.27,1.27,0,0,1,.47.48c.18.31.36.62.56.93a19.08,19.08,0,0,0,1.23,1.65c.51.57,1,1.08,1.49,1.53a21.12,21.12,0,0,0,1.95,1.51c.5.35,1,.69,1.55,1s1,.66,1.59.95a31.54,31.54,0,0,0,3.38,1.46A51.46,51.46,0,0,0,144.25,64a46.19,46.19,0,0,0,5.61.86,32.66,32.66,0,0,0,4.31.11c1,0,2-.14,3-.27l.57-.07A20.41,20.41,0,0,1,160.39,64.38ZM123.1,52.59h0Zm.21-24.38h0c-.61.4-1.21.8-1.77,1.2s-1.25.95-1.92,1.51-1.33,1.2-1.93,1.84-1.21,1.3-1.81,2c-.42.54-.84,1.08-1.19,1.61a18.94,18.94,0,0,0-.94,1.66c-.18.39-.36.8-.53,1.21a11.88,11.88,0,0,0-.36,1.2,13.94,13.94,0,0,0-.21,1.4,10.57,10.57,0,0,0,0,1.48,7.43,7.43,0,0,0,.16,1c.11.41.25.81.4,1.21a17,17,0,0,0,1.4,2.36c.36.44.77.9,1.24,1.37.34.29.71.6,1.11.9l.7.45c.41.21.85.42,1.33.62l1.34.47.69.18.28.06.49.07.32,0h1l.45,0,.31,0c.65-.11,1.3-.23,1.94-.36.44-.1.89-.21,1.32-.33.71-.22,1.4-.47,2.09-.73.47-.19.92-.39,1.37-.61s.93-.53,1.37-.81a20.1,20.1,0,0,0,2-1.53A20.05,20.05,0,0,0,136,45.49a7.48,7.48,0,0,0,.66-1,12.3,12.3,0,0,0,.67-2,12.56,12.56,0,0,0,.13-2.61,17.16,17.16,0,0,0-1.07-4.13,17.41,17.41,0,0,0-1.84-3.28,16.88,16.88,0,0,0-1.18-1.49l-.33-.37a22,22,0,0,1,.75,3,23.85,23.85,0,0,1,.38,6.54c-.06.56-.14,1.11-.24,1.66a8.31,8.31,0,0,1-.46,1.62c-.19.5-.39,1-.61,1.47a13.54,13.54,0,0,1-.73,1.38,9.7,9.7,0,0,1-1.88,2.34,8.38,8.38,0,0,1-.66.52,5.13,5.13,0,0,1-.7.48c-.26.14-.51.27-.78.39a6.78,6.78,0,0,1-.79.3,4.42,4.42,0,0,1-1.5.15,3.7,3.7,0,0,1-1.73-.63,7.3,7.3,0,0,1-1.35-1.14,7.46,7.46,0,0,1-1-1.47,11.09,11.09,0,0,1-.73-1.62,18.91,18.91,0,0,1-.85-3.37,13.76,13.76,0,0,1-.14-1.71c0-.56,0-1.13,0-1.7s.1-1.24.19-1.85.19-1.12.32-1.67.29-1.13.45-1.69.37-1.09.58-1.63a26.63,26.63,0,0,1,1.47-3.26C123.14,28.52,123.23,28.37,123.31,28.21ZM125.23,27c-.15.22-.31.45-.46.69-.3.47-.57.95-.84,1.44a25.13,25.13,0,0,0-1.39,3.06c-.22.59-.42,1.11-.58,1.64s-.3,1.08-.43,1.63-.23,1.05-.31,1.58-.14,1.19-.18,1.78,0,1.08,0,1.62a11.6,11.6,0,0,0,.13,1.57,17.88,17.88,0,0,0,.81,3.18,8.76,8.76,0,0,0,.66,1.47,5.84,5.84,0,0,0,.87,1.28,6.48,6.48,0,0,0,1.17,1,2.66,2.66,0,0,0,1.25.47,3.5,3.5,0,0,0,1.16-.11,5.46,5.46,0,0,0,.67-.26,7.37,7.37,0,0,0,.69-.34,5.79,5.79,0,0,0,.6-.41l.6-.48a8.56,8.56,0,0,0,1.67-2.1,13,13,0,0,0,.69-1.28c.21-.46.4-.94.58-1.41a7.46,7.46,0,0,0,.41-1.45c.1-.52.18-1,.23-1.58a23,23,0,0,0-.36-6.27,22.77,22.77,0,0,0-.82-3.16c-.18-.54-.38-1.09-.62-1.64-.4-.37-.79-.7-1.18-1-.59-.48-1.24-1-2.05-1.54l-.84-.57-1,.53Z" transform="translate(-0.6 -0.57)"/><path class="b" d="M71.42,24.79A3.8,3.8,0,1,1,67.62,21,3.8,3.8,0,0,1,71.42,24.79Z" transform="translate(-0.6 -0.57)"/><path class="b" d="M156.25,42.58a2.43,2.43,0,1,1-2.42-2.43A2.43,2.43,0,0,1,156.25,42.58Z" transform="translate(-0.6 -0.57)"/><path class="c" d="M9,31.31a10.1,10.1,0,0,1,3.1.07A8.18,8.18,0,0,1,15,32.46a8.63,8.63,0,0,1,2.29,2.12,9,9,0,0,1,1.5,3.2A1.33,1.33,0,0,1,18.58,39a1.63,1.63,0,0,1-.93.63,1.67,1.67,0,0,1-1.15-.14,1.46,1.46,0,0,1-.8-1,7.08,7.08,0,0,0-2.44-3.38,4.87,4.87,0,0,0-4-.66,5.51,5.51,0,0,0-2.64,1.15A7.07,7.07,0,0,0,5,37.75,9.24,9.24,0,0,0,4,40.46a14,14,0,0,0-.21,3A15.31,15.31,0,0,0,4.36,47a10.82,10.82,0,0,0,1.39,3.06,7.77,7.77,0,0,0,2.16,2.19,5,5,0,0,0,2.85.83,9.46,9.46,0,0,0,4.38-1,14.69,14.69,0,0,0,4.52-3.52,1.83,1.83,0,0,1,1.25-.66,1.77,1.77,0,0,1,1.19.35,1.72,1.72,0,0,1,.62,1,1.41,1.41,0,0,1-.34,1.22,13.49,13.49,0,0,1-2.65,2.73,16.91,16.91,0,0,1-3,1.87,15.38,15.38,0,0,1-3.1,1.1,12.45,12.45,0,0,1-2.85.35,8.57,8.57,0,0,1-4.42-1.13,10.64,10.64,0,0,1-3.2-2.92,12.62,12.62,0,0,1-1.91-4.09A17.73,17.73,0,0,1,.6,43.63a18.57,18.57,0,0,1,.46-4.14,12.48,12.48,0,0,1,1.46-3.76,9.61,9.61,0,0,1,2.61-2.89A8.75,8.75,0,0,1,9,31.31Z" transform="translate(-0.6 -0.57)"/><path class="c" d="M52.77,33.68c0,2.18.08,3.94.1,5.28s.05,2.47.07,3.38,0,1.71,0,2.43v2.4q0,1.32,0,3.24c0,1.27,0,3,0,5a1.46,1.46,0,0,1-.56,1.25,2,2,0,0,1-1.22.42,2.11,2.11,0,0,1-1.21-.38,1.31,1.31,0,0,1-.56-1.15V52a9.33,9.33,0,0,1-3.13,3.06,8.87,8.87,0,0,1-4.59,1.11A7.26,7.26,0,0,1,35,52.77,13.11,13.11,0,0,1,33.43,49a34.18,34.18,0,0,1-.83-4.66,49.08,49.08,0,0,1-.31-5c0-1.71,0-3.38,0-5a1.44,1.44,0,0,1,.52-1.19,2,2,0,0,1,1.15-.45A1.84,1.84,0,0,1,35.1,33a1.37,1.37,0,0,1,.56,1.22q.06,3.06.14,6.36a37.16,37.16,0,0,0,.59,6.12,11.54,11.54,0,0,0,1.81,4.63A4.36,4.36,0,0,0,42,53.08q3.9,0,5.56-4.24t1.74-12V34a1.47,1.47,0,0,1,.52-1.19A2.21,2.21,0,0,1,51,32.29a1.72,1.72,0,0,1,1.18.28A1.38,1.38,0,0,1,52.77,33.68Z" transform="translate(-0.6 -0.57)"/><path class="c" d="M65.92,33.19a1.55,1.55,0,0,1,.55-1.32,2,2,0,0,1,2.44,0,1.55,1.55,0,0,1,.55,1.32c0,2.09,0,4.06,0,5.91s.06,3.69.1,5.5.08,3.64.11,5.49,0,3.83,0,5.92a1.28,1.28,0,0,1-.55,1.14,2.16,2.16,0,0,1-1.26.39,2.13,2.13,0,0,1-1.25-.39A1.29,1.29,0,0,1,66.12,56c0-2.09,0-4.06,0-5.92s0-3.68-.07-5.49S66,41,66,39.1,65.92,35.28,65.92,33.19Z" transform="translate(-0.6 -0.57)"/><path class="c" d="M104,18a2,2,0,0,1,.56-1.36,1.59,1.59,0,0,1,1.11-.45,1.72,1.72,0,0,1,1.15.45,1.88,1.88,0,0,1,.59,1.36c-.14,3.38-.23,6.61-.28,9.67s-.05,6.1,0,9.11.06,6.06.1,9.15.1,6.31.14,9.7a1.83,1.83,0,0,1-.62,1.15,1.76,1.76,0,0,1-1.08.38,1.71,1.71,0,0,1-1.08-.38,1.88,1.88,0,0,1-.63-1.15q0-.77,0-1.53t0-1.53a11,11,0,0,1-5.4,2.85,11.94,11.94,0,0,1-6.12-.21,10.94,10.94,0,0,1-5.14-3.44,11.71,11.71,0,0,1-2.54-6.92,12.61,12.61,0,0,1,1.81-7.83,10.41,10.41,0,0,1,5-4.07,11.6,11.6,0,0,1,6.36-.45,11,11,0,0,1,5.78,3.1q-.08-4.24,0-8.52C103.78,24.26,103.89,21.24,104,18Zm-.34,26.64a10,10,0,0,0-1.36-5.18,8.37,8.37,0,0,0-3.1-3,7.26,7.26,0,0,0-3.89-.87,7.36,7.36,0,0,0-3.76,1.22,7.77,7.77,0,0,0-2.67,3.23,9.6,9.6,0,0,0-.67,5.25,8.15,8.15,0,0,0,1.57,4.28,7.28,7.28,0,0,0,3,2.33,7.58,7.58,0,0,0,3.65.52A8.27,8.27,0,0,0,100,51.32a7.53,7.53,0,0,0,3.69-6.64Z" transform="translate(-0.6 -0.57)"/><path class="c" d="M146.61,54a1.7,1.7,0,0,1-2.26,0,1.55,1.55,0,0,1-.5-1.23c0-3.85-.06-7.54-.2-11.06s-.2-7.07-.2-10.65a1.56,1.56,0,0,1,.5-1.24,1.68,1.68,0,0,1,1.1-.43,1.82,1.82,0,0,1,1.13.43,1.52,1.52,0,0,1,.53,1.24l.07,3.25a8.64,8.64,0,0,1,2.72-2.47,8.81,8.81,0,0,1,3.92-1.05,8.16,8.16,0,0,1,4.85,1.22,10.13,10.13,0,0,1,3.12,3.32,16.06,16.06,0,0,1,1.76,4.52,30.32,30.32,0,0,1,.7,4.89c.08,1.41.13,2.8.13,4.15s0,2.55-.07,3.62a1.51,1.51,0,0,1-.5,1.26,1.82,1.82,0,0,1-1.09.43,1.68,1.68,0,0,1-1.1-.33,1.28,1.28,0,0,1-.5-1.1q-.06-1.65,0-3.72c.05-1.37,0-2.76-.06-4.18a28.25,28.25,0,0,0-.4-3.29,15,15,0,0,0-1.1-3.59,8.39,8.39,0,0,0-2.06-2.85,4.49,4.49,0,0,0-3.28-1.1,6,6,0,0,0-3.59,1.23,7,7,0,0,0-2,2.76,12.65,12.65,0,0,0-.89,3.68,38.47,38.47,0,0,0-.2,4v7.1A1.55,1.55,0,0,1,146.61,54Z" transform="translate(-0.6 -0.57)"/><path class="a" d="M179,14.72A3.16,3.16,0,0,0,173.62,17,3.16,3.16,0,1,0,179,14.72Zm-.2,4.27a2.87,2.87,0,0,1-4.06,0,2.89,2.89,0,0,1-.84-2,2.87,2.87,0,1,1,5.74,0A2.89,2.89,0,0,1,178.81,19Z" transform="translate(-0.6 -0.57)"/><path class="a" d="M178.09,16.16c0-.76-.54-1-1.28-1h-1.14v3.66h.47V17.24h.65l.88,1.55h.53l-.93-1.6A1,1,0,0,0,178.09,16.16Zm-1.35.7h-.6V15.51h.6c.57,0,.88.17.88.65S177.31,16.86,176.74,16.86Z" transform="translate(-0.6 -0.57)"/></svg>